<svg xmlns="http://www.w3.org/2000/svg" width="91.113" height="81.376" viewBox="0 0 91.113 81.376"><defs><style>.a{fill:#f1f1f1;}.b{fill:#878787;}.c{fill:#95c11f;}.d{fill:#fff;}.e{fill:none;stroke:#b2b2b2;stroke-linecap:round;stroke-miterlimit:10;stroke-width:2px;}</style></defs><g transform="translate(-362.619 -585.416)"><path class="a" d="M453.2,622.321l-15.134-33.4a5.964,5.964,0,0,0-7.895-2.971l-64.047,29.02a5.965,5.965,0,0,0-2.971,7.894l15.135,33.4a5.964,5.964,0,0,0,7.894,2.971l3.484-1.579a18.8,18.8,0,0,1-.731-5.68,17.728,17.728,0,0,1,32.757-8.831l28.537-12.93A5.965,5.965,0,0,0,453.2,622.321Z"/><rect class="b" width="81.869" height="8.411" transform="translate(364.934 626.794) rotate(-24.376)"/><path class="c" d="M405.3,635.5a15.644,15.644,0,1,0,15.644,15.8A15.6,15.6,0,0,0,405.3,635.5Zm7.61,10.251q-4.217,6.046-8.435,12.092c-.75,1.074-1.112,1.087-1.9.057q-2.488-3.236-4.958-6.484c-.25-.33-.54-.7-.245-1.155a1.616,1.616,0,0,1,1.075-.832,1.7,1.7,0,0,1,.885.42c1.208.926,2.435,1.829,3.615,2.791.406.331.594.312.931-.083,2.351-2.756,4.728-5.489,7.1-8.226.426-.492.859-.914,1.585-.427C413.505,644.544,413.574,644.8,412.907,645.754Z"/><path class="d" d="M412.907,645.754q-4.217,6.046-8.435,12.092c-.75,1.074-1.112,1.087-1.9.057q-2.488-3.236-4.958-6.484c-.25-.33-.54-.7-.245-1.155a1.616,1.616,0,0,1,1.075-.832,1.7,1.7,0,0,1,.885.42c1.208.926,2.435,1.829,3.615,2.791.406.331.594.312.931-.083,2.351-2.756,4.728-5.489,7.1-8.226.426-.492.859-.914,1.585-.427C413.505,644.544,413.574,644.8,412.907,645.754Z"/><line class="e" x2="9.882" transform="translate(426.706 652.176)"/><line class="e" x2="21.294" transform="translate(426.706 657.059)"/></g></svg>